Coordinates
version=1
nRows=12
nColumns=24
inDegrees=yes

Units are S.I. units (second, meters, Newtons, ...)
Angles are in degrees.

endheader
time	pelvis_tilt	pelvis_list	pelvis_rotation	pelvis_tx	pelvis_ty	pelvis_tz	hip_flexion_r	hip_adduction_r	hip_rotation_r	knee_angle_r	ankle_angle_r	subtalar_angle_r	mtp_angle_r	hip_flexion_l	hip_adduction_l	hip_rotation_l	knee_angle_l	ankle_angle_l	subtalar_angle_l	mtp_angle_l	lumbar_extension	lumbar_bending	lumbar_rotation
      4.25500000	     13.07730712	      1.06855644	     10.43025178	     -0.52936092	      0.92203387	     -0.28236532	      5.74606216	     -0.16381287	     -4.19166684	     -4.02456889	     12.28875104	     -4.09924478	      0.00000000	    -28.15813635	     -1.71411092	      8.06046654	    -13.80106563	     23.38950869	      9.17202168	      0.00000000	    -31.14696597	      3.95136937	    -15.25586406
      4.26000000	     13.13652654	      0.68118206	     10.53754070	     -0.52246928	      0.92178289	     -0.28201516	      5.70921355	      0.30173557	     -4.40332914	     -4.47565890	     12.21046392	     -4.39631817	      0.00000000	    -28.10277886	     -2.24918531	      7.72922262	    -14.84892992	     23.27280082	      9.81906099	      0.00000000	    -31.08929372	      4.41095722	    -15.17981057
      4.26500000	     13.24233263	      0.24796108	     10.64101597	     -0.51551289	      0.92161475	     -0.28159424	      5.62603305	      0.83366939	     -4.63488876	     -4.98070267	     12.14450102	     -4.67743373	      0.00000000	    -28.06261421	     -2.84608200	      7.33002956	    -15.95060170	     23.12306532	     10.53071294	      0.00000000	    -31.06692218	      4.91426898	    -15.07379358
      4.27000000	     13.37514724	     -0.21681885	     10.74097018	     -0.50850500	      0.92151232	     -0.28114296	      5.51514726	      1.40911997	     -4.88349029	     -5.53363189	     12.09372632	     -4.93825320	      0.00000000	    -28.01779668	     -3.48081661	      6.89913998	    -17.10716028	     22.92281461	     11.23930486	      0.00000000	    -31.06181707	      5.44560332	    -14.94417711
      4.27500000	     13.51915608	     -0.70300345	     10.83680339	     -0.50146880	      0.92145443	     -0.28067063	      5.39328197	      2.01304819	     -5.14870627	     -6.12983280	     12.06090422	     -5.17242149	      0.00000000	    -27.94671661	     -4.13816110	      6.45589671	    -18.32768870	     22.66887038	     11.92793857	      0.00000000	    -31.06311409	      5.99501560	    -14.79799783
      4.28000000	     13.71893839	     -1.20460673	     10.92887381	     -0.49443470	      0.92148997	     -0.28014857	      5.20386424	      2.65175789	     -5.39836564	     -6.73857879	     12.01044048	     -5.40991876	      0.00000000	    -27.89681893	     -4.82483944	      5.98489898	    -19.60764369	     22.35226381	     12.62171195	      0.00000000	    -31.12906455	      6.56802643	    -14.66149425
      4.28500000	     13.81824064	     -1.72736448	     11.02614157	     -0.48732752	      0.92144708	     -0.27966195	      5.12481050	      3.28869902	     -5.69182459	     -7.39675541	     12.05153562	     -5.54941518	      0.00000000	    -27.69796176	     -5.50924681	      5.58015808	    -20.95844759	     21.98378283	     13.21862254	      0.00000000	    -31.06477679	      7.14292226	    -14.45649130
      4.29000000	     13.92268501	     -2.25126888	     11.12250494	     -0.48023957	      0.92144424	     -0.27911784	      5.03202654	      3.93435058	     -5.97165418	     -8.06130356	     12.08012624	     -5.69375189	      0.00000000	    -27.45877895	     -6.20422677	      5.15491767	    -22.37700840	     21.56202257	     13.81254316	      0.00000000	    -31.01084699	      7.71254783	    -14.28230859
      4.29500000	     14.02330484	     -2.78002562	     11.21368632	     -0.47314610	      0.92146169	     -0.27854009	      4.93308548	      4.58887857	     -6.24677392	     -8.72735306	     12.12382272	     -5.82122466	      0.00000000	    -27.17571322	     -6.90364301	      4.74155395	    -23.85161953	     21.07553542	     14.33815695	      0.00000000	    -30.95097395	      8.28102557	    -14.10648014
      4.30000000	     14.11248288	     -3.31054064	     11.30561100	     -0.46604841	      0.92149280	     -0.27795931	      4.83108517	      5.24539600	     -6.51098172	     -9.38156761	     12.18907180	     -5.92466985	      0.00000000	    -26.83884374	     -7.60375741	      4.35099115	    -25.38281514	     20.53065387	     14.79360314	      0.00000000	    -30.87683919	      8.84765088	    -13.92735153
      4.30500000	     14.18726945	     -3.84088158	     11.40071208	     -0.45894916	      0.92153057	     -0.27735352	      4.72907989	      5.90316322	     -6.76965705	    -10.02028069	     12.27590003	     -6.01405309	      0.00000000	    -26.44445296	     -8.30633604	      3.98181444	    -26.96520549	     19.93086656	     15.17124542	      0.00000000	    -30.78485354	      9.40934881	    -13.75839145
      4.31000000	     14.24595245	     -4.36541717	     11.49773933	     -0.45186489	      0.92157344	     -0.27675419	      4.62590533	      6.55377017	     -7.01466847	    -10.63365997	     12.38314131	     -6.08212291	      0.00000000	    -25.99091428	     -8.99935902	      3.65170126	    -28.59592303	     19.28025887	     15.44767620	      0.00000000	    -30.67611661	      9.96018746	    -13.59070052
